<svg width="305" height="48" viewBox="0 0 305 48" fill="none" xmlns="http://www.w3.org/2000/svg">
<g clip-path="url(#clip0_7522_1938)">
<path d="M42.1463 0H5.85366C2.62077 0 0 2.62077 0 5.85366V42.1463C0 45.3792 2.62077 48 5.85366 48H42.1463C45.3792 48 48 45.3792 48 42.1463V5.85366C48 2.62077 45.3792 0 42.1463 0Z" fill="white"/>
<path fill-rule="evenodd" clip-rule="evenodd" d="M18.5791 18.5792C22.5006 14.6584 24.3161 10.1159 22.634 8.43381C20.9512 6.74957 16.4065 8.56498 12.4861 12.4865C8.5653 16.4077 6.74989 20.9513 8.43339 22.6333C10.1154 24.3157 14.6591 22.5003 18.5791 18.5792Z" fill="#16A34A"/>
<path fill-rule="evenodd" clip-rule="evenodd" d="M35.8254 35.8266C39.7466 31.9058 41.562 27.3626 39.8796 25.6805C38.1968 23.9974 33.6554 25.8124 29.7335 29.7343C25.8123 33.6555 23.9973 38.198 25.679 39.8797C27.3621 41.5632 31.9057 39.7492 35.8254 35.8266Z" fill="#16A34A"/>
<path fill-rule="evenodd" clip-rule="evenodd" d="M18.5791 29.7347C14.6591 25.8129 10.1154 23.9975 8.43339 25.6806C6.74989 27.3627 8.5653 31.9066 12.4861 35.8267C16.4072 39.7493 20.9512 41.5633 22.634 39.8801C24.3175 38.197 22.5006 33.6559 18.5791 29.7347Z" fill="#16A34A"/>
<path fill-rule="evenodd" clip-rule="evenodd" d="M35.8254 12.4868C31.9057 8.56529 27.3621 6.74952 25.6786 8.43375C23.9972 10.1158 25.8119 14.6583 29.7331 18.5788C33.6553 22.5003 38.1982 24.3157 39.8795 22.6333C41.5627 20.9505 39.748 16.4076 35.8254 12.4868Z" fill="#16A34A"/>
<path d="M24.157 11.2932C24.157 18.3979 18.3964 24.157 11.2932 24.157C18.3979 24.157 24.157 29.9161 24.157 37.0196C24.157 29.9161 29.9157 24.157 37.0193 24.157C29.9161 24.157 24.157 18.3979 24.157 11.2932Z" fill="#16A34A"/>
<path d="M69.7254 38.5704L64 10.1464H69.2382L73.2581 30.2056L77.3187 10.1464H82.5163L76.7908 38.5704H69.7254V38.5704ZM88.9036 38.5704V10.1464H102.831V15.2627H94.0199V21.8002H100.557V26.9166H94.0199V33.4541H102.831V38.5704H88.9036V38.5704ZM110.031 38.5704V10.1464H122.74L126.517 13.9227V34.7941L122.74 38.5704H110.031V38.5704ZM115.147 33.4541H120.629L121.4 32.6826V16.0342L120.629 15.2627H115.147V33.4541V33.4541ZM132.904 38.5704L138.629 10.1464H145.695L151.42 38.5704H146.223L144.964 32.3171H139.401L138.142 38.5704H132.904ZM140.416 27.2008H143.908L142.162 18.5112L140.416 27.2008ZM174.387 38.5704L168.662 10.1464H173.9L177.92 30.2056L181.98 10.1464H187.178L181.452 38.5704H174.387ZM193.565 38.5704V10.1464H207.493V15.2627H198.681V21.8002H205.219V26.9166H198.681V33.4541H207.493V38.5704H193.565ZM214.692 38.5704V10.1464H226.833L230.61 13.9227V24.2772L228.417 26.5105L231.544 38.5704H226.265L223.504 28.0535H219.809V38.5704H214.692V38.5704ZM219.809 22.9372H224.722L225.493 22.1657V16.0342L224.722 15.2627H219.809V22.9372V22.9372ZM242.113 38.5704L238.337 34.7941V29.4747H243.453V32.6826L244.225 33.4541H248.367L249.138 32.6826V27.6881L248.367 26.9166H242.113L238.337 23.1402V13.9227L242.113 10.1464H250.478L254.255 13.9227V19.2421H249.138V16.0342L248.367 15.2627H244.225L243.453 16.0342V21.0287L244.225 21.8002H250.478L254.255 25.5766V34.7941L250.478 38.5704H242.113ZM265.23 38.5704L261.454 34.7941V10.1464H266.57V32.6826L267.342 33.4541H272.052L272.824 32.6826V10.1464H277.94V34.7941L274.164 38.5704H265.23V38.5704ZM285.139 38.5704V10.1464H290.581L294.804 20.9069L299.027 10.1464H304.468V38.5704H299.351V23.3433L296.834 29.759H292.773L290.256 23.3433V38.5704H285.139V38.5704Z" fill="white"/>
</g>
<defs>
<clipPath id="clip0_7522_1938">
<rect width="304.468" height="48" fill="white"/>
</clipPath>
</defs>
</svg>
