<svg width="34" height="34" viewBox="0 0 34 34" fill="none" xmlns="http://www.w3.org/2000/svg">
<path fill-rule="evenodd" clip-rule="evenodd" d="M11.5791 11.5792C15.5006 7.65838 17.3161 3.11586 15.634 1.43381C13.9512 -0.250425 9.40652 1.56498 5.48609 5.4865C1.5653 9.40766 -0.250111 13.9513 1.43339 15.6333C3.11545 17.3157 7.65906 15.5003 11.5791 11.5792Z" fill="#16A34A"/>
<path fill-rule="evenodd" clip-rule="evenodd" d="M28.8254 28.8266C32.7466 24.9058 34.562 20.3626 32.8796 18.6805C31.1968 16.9974 26.6554 18.8124 22.7335 22.7343C18.8123 26.6555 16.9973 31.198 18.679 32.8797C20.3621 34.5632 24.9057 32.7492 28.8254 28.8266Z" fill="#16A34A"/>
<path fill-rule="evenodd" clip-rule="evenodd" d="M11.5791 22.7347C7.65906 18.8129 3.11545 16.9975 1.43339 18.6806C-0.250111 20.3627 1.5653 24.9066 5.48609 28.8267C9.40724 32.7493 13.9512 34.5633 15.634 32.8801C17.3175 31.197 15.5006 26.6559 11.5791 22.7347Z" fill="#16A34A"/>
<path fill-rule="evenodd" clip-rule="evenodd" d="M28.8254 5.48681C24.9057 1.56529 20.3621 -0.250484 18.6786 1.43375C16.9972 3.1158 18.8119 7.65833 22.7331 11.5788C26.6553 15.5003 31.1982 17.3157 32.8795 15.6333C34.5627 13.9505 32.748 9.4076 28.8254 5.48681Z" fill="#16A34A"/>
<path d="M17.157 4.29321C17.157 11.3979 11.3964 17.157 4.29321 17.157C11.3979 17.157 17.157 22.9161 17.157 30.0196C17.157 22.9161 22.9157 17.157 30.0193 17.157C22.9161 17.157 17.157 11.3979 17.157 4.29321Z" fill="#16A34A"/>
</svg>
